<svg width="33" height="33" viewBox="0 0 33 33" fill="none" xmlns="http://www.w3.org/2000/svg">
<g opacity="0.3">
<path d="M32.5 0.5H0.5V32.5H32.5V0.5Z" fill="white"/>
<path d="M16.5 31.8333C21.6546 31.8333 25.8333 27.6546 25.8333 22.5C25.8333 17.3453 21.6546 13.1666 16.5 13.1666C11.3453 13.1666 7.16663 17.3453 7.16663 22.5C7.16663 27.6546 11.3453 31.8333 16.5 31.8333Z" fill="#777777"/>
<path d="M32.5 1.16663H16.5V5.16663H32.5V1.16663Z" fill="#0A0A0A"/>
<path d="M20.5 18.5H12.5V27.8333H20.5V18.5Z" fill="white"/>
<path d="M24.1577 14.5L18.5 17.7665L20.5 21.2306L26.1577 17.9641L24.1577 14.5Z" fill="white"/>
<path d="M14.8243 18.4331L9.16663 15.1666L7.16663 18.6307L12.8243 21.8972L14.8243 18.4331Z" fill="white"/>
<path d="M16.5 19.8333C21.6546 19.8333 25.8333 15.6546 25.8333 10.5C25.8333 5.3453 21.6546 1.16663 16.5 1.16663C11.3453 1.16663 7.16663 5.3453 7.16663 10.5C7.16663 15.6546 11.3453 19.8333 16.5 19.8333Z" fill="#0A0A0A"/>
<path d="M16.5 15.8333C19.4455 15.8333 21.8333 13.4455 21.8333 10.5C21.8333 7.55444 19.4455 5.16663 16.5 5.16663C13.5544 5.16663 11.1666 7.55444 11.1666 10.5C11.1666 13.4455 13.5544 15.8333 16.5 15.8333Z" fill="white"/>
</g>
</svg>
