<svg width="19" height="21" viewBox="0 0 19 21" fill="none" xmlns="http://www.w3.org/2000/svg">
<path d="M15.0417 18.375V16.625C15.0417 15.6967 14.7081 14.8065 14.1142 14.1501C13.5203 13.4937 12.7149 13.125 11.875 13.125H7.12504C6.28519 13.125 5.47973 13.4937 4.88587 14.1501C4.292 14.8065 3.95837 15.6967 3.95837 16.625V18.375" stroke="#D2D2D2" stroke-width="2" stroke-linecap="round" stroke-linejoin="round"/>
<path d="M15.0417 18.375V16.625C15.0417 15.6967 14.7081 14.8065 14.1142 14.1501C13.5203 13.4937 12.7149 13.125 11.875 13.125H7.12504C6.28519 13.125 5.47973 13.4937 4.88587 14.1501C4.292 14.8065 3.95837 15.6967 3.95837 16.625V18.375" stroke="#D2D2D2" stroke-width="2" stroke-linecap="round" stroke-linejoin="round"/>
<path d="M9.50004 9.625C11.2489 9.625 12.6667 8.058 12.6667 6.125C12.6667 4.192 11.2489 2.625 9.50004 2.625C7.75114 2.625 6.33337 4.192 6.33337 6.125C6.33337 8.058 7.75114 9.625 9.50004 9.625Z" stroke="#D2D2D2" stroke-width="2" stroke-linecap="round" stroke-linejoin="round"/>
</svg>
