<svg width="48" height="48" viewBox="0 0 48 48" fill="none" xmlns="http://www.w3.org/2000/svg">
<rect x="0.5" y="0.5" width="47" height="47" rx="23.5" fill="white"/>
<rect x="0.5" y="0.5" width="47" height="47" rx="23.5" stroke="black"/>
<path d="M30.6666 10.6665H17.3333C13.6514 10.6665 10.6666 13.6513 10.6666 17.3332V30.6665C10.6666 34.3484 13.6514 37.3332 17.3333 37.3332H30.6666C34.3485 37.3332 37.3333 34.3484 37.3333 30.6665V17.3332C37.3333 13.6513 34.3485 10.6665 30.6666 10.6665Z" stroke="black" stroke-width="2" stroke-linecap="round" stroke-linejoin="round"/>
<path d="M29.3334 23.1599C29.4979 24.2696 29.3084 25.4029 28.7917 26.3986C28.275 27.3943 27.4575 28.2018 26.4555 28.7061C25.4535 29.2105 24.3179 29.386 23.2104 29.2078C22.1029 29.0296 21.0797 28.5067 20.2865 27.7135C19.4932 26.9202 18.9703 25.8971 18.7921 24.7895C18.6139 23.682 18.7894 22.5464 19.2938 21.5444C19.7981 20.5424 20.6056 19.7249 21.6013 19.2082C22.5971 18.6916 23.7304 18.502 24.84 18.6666C25.9719 18.8344 27.0198 19.3619 27.8289 20.171C28.6381 20.9801 29.1655 22.028 29.3334 23.1599Z" stroke="black" stroke-width="2" stroke-linecap="round" stroke-linejoin="round"/>
<path d="M31.3334 16.6665H31.3467" stroke="black" stroke-width="2" stroke-linecap="round" stroke-linejoin="round"/>
</svg>
