<svg width="14" height="20" viewBox="0 0 14 20" fill="none" xmlns="http://www.w3.org/2000/svg">
<mask id="path-1-inside-1_26_52" fill="white">
<path d="M6.68705 0C2.99971 0 0 2.62054 0 5.92411C0 6.65625 0.174402 7.45536 0.488325 8.17411H0.483341L0.513239 8.22768C0.538154 8.27679 0.563068 8.32589 0.587983 8.375L6.68705 20L12.7562 8.43304L12.7861 8.37946C12.811 8.33036 12.8409 8.28125 12.8659 8.22768L12.8858 8.17857C13.2097 7.45982 13.3741 6.70089 13.3741 5.93304C13.3741 2.62054 10.3744 0 6.68705 0ZM12.1234 7.91964L12.1134 7.94196C12.0985 7.96875 12.0835 8 12.0686 8.02679L12.0188 8.12054L6.68705 18.2723L1.35037 8.12054L1.30552 8.03125C1.29057 8.00446 1.27562 7.97768 1.26566 7.95089C0.971666 7.30357 0.812213 6.58482 0.812213 5.92411C0.812213 3.02232 3.44817 0.723214 6.69204 0.723214C9.93591 0.723214 12.5719 3.01786 12.5719 5.92411C12.5669 6.60268 12.4174 7.27232 12.1234 7.91964Z"/>
</mask>
<path d="M6.68705 0C2.99971 0 0 2.62054 0 5.92411C0 6.65625 0.174402 7.45536 0.488325 8.17411H0.483341L0.513239 8.22768C0.538154 8.27679 0.563068 8.32589 0.587983 8.375L6.68705 20L12.7562 8.43304L12.7861 8.37946C12.811 8.33036 12.8409 8.28125 12.8659 8.22768L12.8858 8.17857C13.2097 7.45982 13.3741 6.70089 13.3741 5.93304C13.3741 2.62054 10.3744 0 6.68705 0ZM12.1234 7.91964L12.1134 7.94196C12.0985 7.96875 12.0835 8 12.0686 8.02679L12.0188 8.12054L6.68705 18.2723L1.35037 8.12054L1.30552 8.03125C1.29057 8.00446 1.27562 7.97768 1.26566 7.95089C0.971666 7.30357 0.812213 6.58482 0.812213 5.92411C0.812213 3.02232 3.44817 0.723214 6.69204 0.723214C9.93591 0.723214 12.5719 3.01786 12.5719 5.92411C12.5669 6.60268 12.4174 7.27232 12.1234 7.91964Z" fill="black" fill-opacity="0.58"/>
<path d="M0.488325 8.17411V10.1741H3.54429L2.32114 7.37361L0.488325 8.17411ZM0.483341 8.17411V6.17411H-2.92323L-1.26309 9.14878L0.483341 8.17411ZM0.513239 8.22768L2.29682 7.32278L2.27893 7.28753L2.25967 7.25301L0.513239 8.22768ZM0.587983 8.375L-1.1956 9.2799L-1.18942 9.29208L-1.18307 9.30418L0.587983 8.375ZM6.68705 20L4.916 20.9292L6.68697 24.3047L8.45807 20.9293L6.68705 20ZM12.7562 8.43304L11.0098 7.45839L10.9972 7.48093L10.9852 7.50379L12.7562 8.43304ZM12.7861 8.37946L14.5326 9.35411L14.5518 9.31961L14.5697 9.28436L12.7861 8.37946ZM12.8659 8.22768L14.6793 9.07107L14.7003 9.02592L14.7191 8.97978L12.8659 8.22768ZM12.8858 8.17857L11.0624 7.35689L11.0468 7.3914L11.0326 7.42647L12.8858 8.17857ZM13.3741 5.93304H15.3741H13.3741ZM12.1234 7.91964L10.3024 7.09259L10.2972 7.10424L12.1234 7.91964ZM12.1134 7.94196L13.8599 8.91662L13.9033 8.83877L13.9397 8.75737L12.1134 7.94196ZM12.0686 8.02679L10.3222 7.05213L10.3122 7.07002L10.3025 7.08812L12.0686 8.02679ZM12.0188 8.12054L10.2527 7.18185L10.2481 7.19059L12.0188 8.12054ZM6.68705 18.2723L4.91676 19.2029L6.68788 22.5721L8.4577 19.2023L6.68705 18.2723ZM1.35037 8.12054L-0.436861 9.01821L-0.428546 9.03476L-0.419927 9.05116L1.35037 8.12054ZM1.30552 8.03125L3.09275 7.13357L3.07319 7.09464L3.05196 7.05659L1.30552 8.03125ZM1.26566 7.95089L3.14012 7.25349L3.11566 7.18774L3.08665 7.12386L1.26566 7.95089ZM12.5719 5.92411L14.5718 5.93879L14.5719 5.93145V5.92411H12.5719ZM6.68705 0V-2C2.1383 -2 -2 1.28756 -2 5.92411H0H2C2 3.95352 3.86111 2 6.68705 2V0ZM0 5.92411H-2C-2 6.95346 -1.75965 8.02407 -1.34449 8.97461L0.488325 8.17411L2.32114 7.37361C2.10845 6.88664 2 6.35904 2 5.92411H0ZM0.488325 8.17411V6.17411H0.483341V8.17411V10.1741H0.488325V8.17411ZM0.483341 8.17411L-1.26309 9.14878L-1.23319 9.20235L0.513239 8.22768L2.25967 7.25301L2.22977 7.19944L0.483341 8.17411ZM0.513239 8.22768L-1.27034 9.13258C-1.25788 9.15713 -1.24543 9.18168 -1.23297 9.20624C-1.22051 9.23079 -1.20805 9.25535 -1.1956 9.2799L0.587983 8.375L2.37156 7.4701C2.35911 7.44555 2.34665 7.421 2.33419 7.39644C2.32173 7.37189 2.30928 7.34733 2.29682 7.32278L0.513239 8.22768ZM0.587983 8.375L-1.18307 9.30418L4.916 20.9292L6.68705 20L8.4581 19.0708L2.35903 7.44582L0.587983 8.375ZM6.68705 20L8.45807 20.9293L14.5272 9.36229L12.7562 8.43304L10.9852 7.50379L4.91604 19.0708L6.68705 20ZM12.7562 8.43304L14.5027 9.40769L14.5326 9.35411L12.7861 8.37946L11.0397 7.40481L11.0098 7.45839L12.7562 8.43304ZM12.7861 8.37946L14.5697 9.28436C14.5642 9.29512 14.5612 9.30069 14.5637 9.29604C14.5702 9.28409 14.5673 9.28955 14.5816 9.26329C14.599 9.23143 14.6384 9.15907 14.6793 9.07107L12.8659 8.22768L11.0524 7.38429C11.0612 7.36528 11.0681 7.35179 11.0711 7.34595C11.0739 7.34063 11.0747 7.33925 11.0704 7.34721C11.068 7.3515 11.066 7.35523 11.0618 7.36294C11.0581 7.36957 11.053 7.37892 11.0475 7.38909C11.0366 7.40913 11.0205 7.43926 11.0025 7.47457L12.7861 8.37946ZM12.8659 8.22768L14.7191 8.97978L14.739 8.93067L12.8858 8.17857L11.0326 7.42647L11.0127 7.47558L12.8659 8.22768ZM12.8858 8.17857L14.7092 9.00025C15.1469 8.02884 15.3741 6.99031 15.3741 5.93304H13.3741H11.3741C11.3741 6.41147 11.2724 6.89081 11.0624 7.35689L12.8858 8.17857ZM13.3741 5.93304H15.3741C15.3741 1.28938 11.2379 -2 6.68705 -2V0V2C9.51093 2 11.3741 3.95169 11.3741 5.93304H13.3741ZM12.1234 7.91964L10.2972 7.10424L10.2872 7.12656L12.1134 7.94196L13.9397 8.75737L13.9496 8.73505L12.1234 7.91964ZM12.1134 7.94196L10.367 6.9673C10.3522 6.99385 10.34 7.01685 10.3316 7.03274C10.3235 7.04809 10.3161 7.06247 10.3131 7.06847C10.3087 7.07698 10.3086 7.07711 10.3092 7.07598C10.3101 7.07433 10.3148 7.06528 10.3222 7.05213L12.0686 8.02679L13.815 9.00145C13.8298 8.9749 13.8421 8.9519 13.8504 8.93601C13.8585 8.92066 13.8659 8.90628 13.869 8.90028C13.8733 8.89177 13.8734 8.89164 13.8728 8.89277C13.872 8.89442 13.8672 8.90347 13.8599 8.91662L12.1134 7.94196ZM12.0686 8.02679L10.3025 7.08812L10.2527 7.18186L12.0188 8.12054L13.7848 9.05921L13.8346 8.96546L12.0686 8.02679ZM12.0188 8.12054L10.2481 7.19059L4.9164 17.3424L6.68705 18.2723L8.4577 19.2023L13.7894 9.05048L12.0188 8.12054ZM6.68705 18.2723L8.45735 17.3417L3.12066 7.18991L1.35037 8.12054L-0.419927 9.05116L4.91676 19.2029L6.68705 18.2723ZM1.35037 8.12054L3.13759 7.22286L3.09275 7.13357L1.30552 8.03125L-0.481706 8.92893L-0.436861 9.01821L1.35037 8.12054ZM1.30552 8.03125L3.05196 7.05659C3.04128 7.03746 3.0518 7.05586 3.06425 7.08018C3.07792 7.10691 3.10855 7.16862 3.14012 7.25349L1.26566 7.95089L-0.608809 8.6483C-0.56727 8.75995 -0.524183 8.84845 -0.496807 8.90196C-0.470661 8.95307 -0.445189 8.99825 -0.440916 9.00591L1.30552 8.03125ZM1.26566 7.95089L3.08665 7.12386C2.90321 6.71997 2.81221 6.28213 2.81221 5.92411H0.812213H-1.18779C-1.18779 6.88752 -0.959884 7.88718 -0.555337 8.77793L1.26566 7.95089ZM0.812213 5.92411H2.81221C2.81221 4.35803 4.30647 2.72321 6.69204 2.72321V0.723214V-1.27679C2.58987 -1.27679 -1.18779 1.68661 -1.18779 5.92411H0.812213ZM6.69204 0.723214V2.72321C9.07879 2.72321 10.5719 4.35461 10.5719 5.92411H12.5719H14.5719C14.5719 1.6811 10.793 -1.27679 6.69204 -1.27679V0.723214ZM12.5719 5.92411L10.5719 5.90942C10.5691 6.2972 10.4849 6.69083 10.3024 7.09261L12.1234 7.91964L13.9444 8.74668C14.3499 7.85381 14.5647 6.90816 14.5718 5.93879L12.5719 5.92411Z" fill="#D2D2D2" fill-opacity="0.2" mask="url(#path-1-inside-1_26_52)"/>
<mask id="path-3-inside-2_26_52" fill="white">
<path d="M6.68704 2.85709C4.92808 2.85709 3.49799 4.13834 3.49799 5.71423C3.49799 7.29012 4.92808 8.57137 6.68704 8.57137C8.44601 8.57137 9.8761 7.29012 9.8761 5.71423C9.8761 4.13834 8.44601 2.85709 6.68704 2.85709ZM6.68704 7.80798C5.39647 7.80798 4.35006 6.87048 4.35006 5.71423C4.35006 4.55798 5.39647 3.62048 6.68704 3.62048C7.97761 3.62048 9.02402 4.55798 9.02402 5.71423C9.02402 6.87048 7.97761 7.80798 6.68704 7.80798Z"/>
</mask>
<path d="M6.68704 2.85709C4.92808 2.85709 3.49799 4.13834 3.49799 5.71423C3.49799 7.29012 4.92808 8.57137 6.68704 8.57137C8.44601 8.57137 9.8761 7.29012 9.8761 5.71423C9.8761 4.13834 8.44601 2.85709 6.68704 2.85709ZM6.68704 7.80798C5.39647 7.80798 4.35006 6.87048 4.35006 5.71423C4.35006 4.55798 5.39647 3.62048 6.68704 3.62048C7.97761 3.62048 9.02402 4.55798 9.02402 5.71423C9.02402 6.87048 7.97761 7.80798 6.68704 7.80798Z" fill="black" fill-opacity="0.58"/>
<path d="M6.68704 2.85709V0.857086C4.03589 0.857086 1.49799 2.83272 1.49799 5.71423H3.49799H5.49799C5.49799 5.55611 5.56564 5.36513 5.76747 5.1843C5.97254 5.00058 6.29266 4.85709 6.68704 4.85709V2.85709ZM3.49799 5.71423H1.49799C1.49799 8.59574 4.03589 10.5714 6.68704 10.5714V8.57137V6.57137C6.29266 6.57137 5.97254 6.42788 5.76747 6.24415C5.56564 6.06333 5.49799 5.87235 5.49799 5.71423H3.49799ZM6.68704 8.57137V10.5714C9.33819 10.5714 11.8761 8.59574 11.8761 5.71423H9.8761H7.8761C7.8761 5.87235 7.80844 6.06333 7.60661 6.24415C7.40155 6.42788 7.08142 6.57137 6.68704 6.57137V8.57137ZM9.8761 5.71423H11.8761C11.8761 2.83272 9.33819 0.857086 6.68704 0.857086V2.85709V4.85709C7.08142 4.85709 7.40155 5.00058 7.60661 5.1843C7.80844 5.36513 7.8761 5.55611 7.8761 5.71423H9.8761ZM6.68704 7.80798V5.80798C6.52561 5.80798 6.41884 5.7496 6.36916 5.70509C6.32295 5.66369 6.35006 5.66394 6.35006 5.71423H4.35006H2.35006C2.35006 8.17609 4.50429 9.80798 6.68704 9.80798V7.80798ZM4.35006 5.71423H6.35006C6.35006 5.76452 6.32295 5.76476 6.36916 5.72337C6.41884 5.67886 6.52561 5.62048 6.68704 5.62048V3.62048V1.62048C4.50429 1.62048 2.35006 3.25236 2.35006 5.71423H4.35006ZM6.68704 3.62048V5.62048C6.84848 5.62048 6.95525 5.67886 7.00493 5.72337C7.05113 5.76476 7.02402 5.76452 7.02402 5.71423H9.02402H11.024C11.024 3.25236 8.8698 1.62048 6.68704 1.62048V3.62048ZM9.02402 5.71423H7.02402C7.02402 5.66394 7.05113 5.66369 7.00493 5.70509C6.95525 5.7496 6.84848 5.80798 6.68704 5.80798V7.80798V9.80798C8.8698 9.80798 11.024 8.17609 11.024 5.71423H9.02402Z" fill="#D2D2D2" fill-opacity="0.2" mask="url(#path-3-inside-2_26_52)"/>
</svg>
