<svg width="50" height="50" viewBox="0 0 50 50" fill="none" xmlns="http://www.w3.org/2000/svg">
<g clip-path="url(#clip0_22_7)">
<path d="M37.1875 9.89584C36.0417 9.58334 33.4375 8.75001 30.3125 7.70834L34.5833 1.77084L27.6042 0.520844L18.5417 4.16668C15.3125 3.22918 12.6042 2.50001 11.3542 2.29168C3.22917 0.833344 0.625 6.77084 0.520833 6.87501L0.3125 7.29168L0.625 7.81251C0.729167 7.91668 1.97917 11.0417 7.70833 12.0833C3.22917 16.1458 0.625 21.875 0.625 28.0208C0.625 39.8958 10.3125 49.4792 22.0833 49.4792C33.8542 49.4792 43.5417 39.7917 43.5417 28.0208C43.5417 24.5833 42.7083 21.1458 41.1458 18.125L49.6875 6.35418L42.1875 5.00001L37.1875 9.89584ZM27.8125 2.70834L30.9375 3.22918L28.2292 7.08334C26.1458 6.45834 23.9583 5.72918 21.7708 5.10418L27.8125 2.70834ZM12.1875 12.9167L13.4375 15.1042L13.125 15C12.8125 14.8958 12.5 14.8958 12.1875 14.7917C11.6667 14.5833 11.25 14.2708 10.8333 13.9583L9.79167 13.2292C10 13.0208 10.3125 12.8125 10.5208 12.7083L12.1875 12.9167ZM22.6042 14.7917L23.9583 23.0208L19.7917 22.2917L14.7917 13.4375L22.6042 14.7917ZM21.25 28.3333C21.4583 29.0625 21.7708 29.6875 22.0833 30.3125C22.5 31.1458 22.9167 31.7708 22.8125 32.3958C22.7083 33.3333 21.4583 33.9583 20.9375 34.1667C20.625 34.2708 20.2083 34.4792 19.8958 34.5833C19.0625 34.8958 18.125 35.2083 17.2917 35.8333C16.25 36.5625 15.625 37.6042 15 38.6458C14.8958 38.75 14.7917 38.9583 14.6875 39.0625C14.6875 39.0625 14.5833 39.0625 14.375 39.1667C13.8542 39.2708 13.2292 39.1667 12.5 39.1667C11.875 39.1667 11.1458 39.0625 10.4167 39.1667C9.47917 39.1667 8.33333 39.7917 7.70833 40.625C7.70833 40.7292 7.60417 40.7292 7.60417 40.8333C7.5 40.7292 7.39583 40.625 7.29167 40.5208L10.3125 36.7708C11.9792 34.6875 11.4583 33.3333 10.9375 32.7083C10.8333 32.6042 10.625 32.3958 10.5208 32.2917C10.4167 32.2917 10.4167 32.1875 10.3125 32.1875C10.2083 32.0833 10.3125 31.4583 10.7292 30.8333C11.3542 30 12.1875 28.6458 11.6667 27.2917C11.3542 26.4583 10.625 25.9375 10 25.625C9.6875 25.4167 9.47917 25.3125 9.27083 25.1042C8.64583 24.4792 8.85417 23.125 9.16667 21.7708C9.375 20.8333 10.2083 18.0208 8.33333 16.4583C8.22917 16.3542 8.02083 16.25 7.91667 16.1458C7.70833 16.0417 7.39583 15.7292 7.39583 15.625C7.39583 15.7292 7.5 15.8333 7.39583 15.9375L7.1875 15.625C7.5 15.3125 7.8125 14.8958 8.125 14.5833L9.47917 15.625C10 16.0417 10.625 16.4583 11.3542 16.7708C11.7708 16.9792 12.1875 16.9792 12.6042 17.0833L14.5833 17.5V17.3958L18.4375 24.1667L21.4583 24.6875C21.25 25.7292 20.9375 27.0833 21.25 28.3333ZM6.14583 17.0833C6.35417 17.2917 6.5625 17.5 6.77083 17.6042C6.875 17.7083 6.97917 17.7083 7.08333 17.8125C7.60417 18.3333 7.70833 19.375 7.29167 21.0417C6.97917 22.2917 6.35417 24.7917 7.8125 26.3542C8.125 26.6667 8.54167 26.9792 8.95833 27.1875C9.375 27.3958 9.6875 27.6042 9.79167 27.8125C9.89583 28.2292 9.47917 28.9583 9.0625 29.4792C8.02083 30.9375 7.91667 32.3958 8.75 33.3333C8.85417 33.4375 9.0625 33.6458 9.16667 33.75C9.27083 33.75 9.27083 33.8542 9.375 33.8542C9.47917 33.9583 9.375 34.4792 8.75 35.3125L6.04167 38.6458C3.95833 35.5208 2.8125 31.875 2.8125 27.9167C2.70833 24.0625 3.95833 20.2083 6.14583 17.0833ZM9.16667 42.3958C9.16667 42.2917 9.16667 42.0833 9.375 41.875C9.6875 41.4583 10.3125 41.1458 10.8333 41.1458C11.3542 41.0417 11.875 41.1458 12.5 41.1458C13.2292 41.25 14.0625 41.25 14.7917 41.1458C15.1042 41.1458 15.5208 41.0417 15.8333 40.7292C16.25 40.4167 16.5625 40 16.7708 39.6875C17.2917 38.75 17.8125 38.0208 18.5417 37.5C19.0625 37.0833 19.7917 36.875 20.5208 36.5625C20.9375 36.4583 21.25 36.25 21.6667 36.1458C23.4375 35.4167 24.4792 34.1667 24.7917 32.8125C25 31.4583 24.375 30.4167 23.8542 29.375C23.5417 28.8542 23.3333 28.3333 23.2292 27.9167C23.0208 27.0833 23.2292 26.0417 23.4375 25.1042L26.4583 25.625L24.6875 15.2083L37.1875 17.5C36.0417 17.7083 34.7917 18.125 34.1667 19.375C34.0625 19.4792 34.0625 19.6875 33.9583 19.7917C33.8542 19.8958 33.8542 20.1042 33.8542 20.1042C33.75 20.3125 33.4375 20.4167 33.0208 20.625C32.8125 20.7292 32.6042 20.8333 32.3958 20.9375C31.7708 21.3542 31.25 21.9792 31.0417 22.7083C31.0417 22.9167 31.0417 23.0208 31.0417 23.2292C30.8333 23.4375 30.5208 23.5417 30.2083 23.75C29.8958 23.8542 29.5833 24.0625 29.2708 24.2708C28.125 25 27.0833 26.3542 27.6042 27.8125C27.8125 28.4375 28.2292 28.8542 28.5417 29.1667C28.6458 29.375 28.9583 29.5833 28.9583 29.6875C28.9583 29.7917 28.8542 30 28.75 30.1042C28.6458 30.3125 28.4375 30.625 28.3333 30.9375C27.7083 32.5 28.6458 33.9583 29.1667 34.6875C29.5833 35.3125 30.2083 36.1458 31.0417 36.6667C31.25 36.7708 31.4583 36.875 31.6667 36.9792C31.7708 37.0833 31.9792 37.0833 32.0833 37.1875C32.7083 37.5 33.0208 38.4375 33.3333 39.2708L33.5417 39.6875C33.9583 40.8333 34.5833 41.7708 35.4167 42.2917C31.9792 45.5208 27.2917 47.6042 22.1875 47.6042C17.1875 47.3958 12.6042 45.5208 9.16667 42.3958ZM36.875 40.5208C36.25 40.4167 35.7292 39.5833 35.4167 38.8542L35.3125 38.4375C34.8958 37.2917 34.375 35.9375 33.125 35.2083C32.9167 35.1042 32.7083 35 32.5 34.8958C32.3958 34.7917 32.1875 34.7917 32.0833 34.6875C31.6667 34.4792 31.25 33.8542 30.9375 33.3333C30.5208 32.7083 30.1042 31.9792 30.3125 31.5625C30.3125 31.4583 30.4167 31.3542 30.5208 31.1458C30.7292 30.8333 31.1458 30.3125 31.1458 29.6875C31.1458 28.75 30.5208 28.125 30.1042 27.6042C29.8958 27.3958 29.6875 27.1875 29.5833 26.9792C29.4792 26.7708 29.8958 26.25 30.4167 25.9375C30.625 25.8333 30.9375 25.625 31.1458 25.5208C31.7708 25.2083 32.5 24.8958 33.0208 24.2708L33.5417 23.6458L33.125 23.0208C33.125 22.9167 33.3333 22.8125 33.4375 22.7083C33.5417 22.6042 33.75 22.5 33.8542 22.5C34.375 22.2917 35 21.9792 35.4167 21.25C35.625 21.0417 35.7292 20.7292 35.7292 20.5208C35.7292 20.4167 35.8333 20.3125 35.8333 20.2083C36.25 19.4792 37.3958 19.1667 39.2708 19.375C40.5208 21.9792 41.25 24.8958 41.25 27.8125C41.5625 32.8125 39.7917 37.1875 36.875 40.5208ZM46.3542 7.81251L40.3125 15.9375L8.02083 10.1042C2.91667 9.06251 4.16667 8.33334 3.22917 7.29168C3.64583 6.66668 4.27083 5.72918 5.52083 5.00001C6.04167 5.83334 7.08333 6.87501 8.75 7.39584L9.375 5.41668C8.54167 5.10418 7.91667 4.68751 7.60417 4.27084C8.54167 4.06251 9.6875 4.06251 11.0417 4.37501C15.4167 5.20834 36.875 12.0833 37.0833 12.0833L37.6042 12.2917L42.8125 7.29168L46.3542 7.81251Z" fill="white"/>
</g>
<defs>
<clipPath id="clip0_22_7">
<rect width="50" height="50" fill="white"/>
</clipPath>
</defs>
</svg>
