<svg width="33" height="33" viewBox="0 0 33 33" fill="none" xmlns="http://www.w3.org/2000/svg">
<g clip-path="url(#clip0_41_32)">
<path d="M32.5 0.5H0.5V32.5H32.5V0.5Z" fill="white"/>
<path d="M16.0916 4.64168L10.8283 9.90497C10.6617 10.0716 10.6617 10.3417 10.8283 10.5084L16.0916 15.7717C16.2582 15.9383 16.5284 15.9383 16.695 15.7717L21.9583 10.5084C22.1249 10.3417 22.1249 10.0716 21.9583 9.90497L16.695 4.64168C16.5284 4.47505 16.2582 4.47505 16.0916 4.64168Z" fill="#777777"/>
<path d="M16.305 18.0817L11.0417 23.345C10.8751 23.5116 10.8751 23.7817 11.0417 23.9484L16.305 29.2117C16.4716 29.3783 16.7418 29.3783 16.9084 29.2117L22.1717 23.9484C22.3383 23.7817 22.3383 23.5116 22.1717 23.345L16.9084 18.0817C16.7418 17.9151 16.4716 17.9151 16.305 18.0817Z" fill="#777777"/>
<path d="M9.26494 11.4683L4.00165 16.7316C3.83503 16.8983 3.83503 17.1684 4.00165 17.335L9.26494 22.5983C9.43156 22.7649 9.70171 22.7649 9.86834 22.5983L15.1316 17.335C15.2982 17.1684 15.2982 16.8982 15.1316 16.7316L9.86834 11.4683C9.70171 11.3017 9.43156 11.3017 9.26494 11.4683Z" fill="#777777"/>
<path d="M23.1316 11.255L17.8683 16.5183C17.7017 16.6849 17.7017 16.9551 17.8683 17.1217L23.1316 22.385C23.2983 22.5516 23.5684 22.5516 23.735 22.385L28.9983 17.1217C29.1649 16.9551 29.1649 16.6849 28.9983 16.5183L23.735 11.255C23.5684 11.0884 23.2983 11.0884 23.1316 11.255Z" fill="#777777"/>
</g>
<defs>
<clipPath id="clip0_41_32">
<rect width="32" height="32" fill="white" transform="translate(0.5 0.5)"/>
</clipPath>
</defs>
</svg>
