<svg width="33" height="33" viewBox="0 0 33 33" fill="none" xmlns="http://www.w3.org/2000/svg">
<rect width="32" height="32" transform="translate(0.5 0.5)" fill="white"/>
<path d="M13.5108 1.21997H5.42473C3.80945 1.21997 2.5 2.43776 2.5 3.93997V29.06C2.5 30.5622 3.80945 31.78 5.42473 31.78H13.5108C15.126 31.78 16.4355 30.5622 16.4355 29.06V3.93997C16.4355 2.43776 15.126 1.21997 13.5108 1.21997Z" fill="#777777"/>
<path d="M16.4354 29C18.2739 29 20.0944 28.6766 21.7929 28.0485C23.4916 27.4203 25.0349 26.4995 26.335 25.3389C27.6349 24.1781 28.6662 22.8002 29.3697 21.2835C30.0733 19.767 30.4354 18.1415 30.4354 16.5C30.4354 14.8585 30.0733 13.233 29.3697 11.7165C28.6662 10.1999 27.6349 8.8219 26.335 7.66116C25.0349 6.50042 23.4916 5.57969 21.7929 4.9515C20.0944 4.32332 18.2739 4 16.4354 4V10.25C17.3547 10.25 18.2649 10.4117 19.1143 10.7258C19.9634 11.0398 20.7352 11.5002 21.3852 12.0806C22.0353 12.6609 22.5508 13.3499 22.9026 14.1082C23.2543 14.8665 23.4354 15.6792 23.4354 16.5C23.4354 17.3208 23.2543 18.1335 22.9026 18.8918C22.5508 19.65 22.0353 20.3391 21.3852 20.9194C20.7352 21.4998 19.9634 21.9601 19.1143 22.2742C18.2649 22.5884 17.3547 22.75 16.4354 22.75V29Z" fill="#777777"/>
<path d="M16.5001 3.85999C14.67 3.85999 12.8579 4.17658 11.1672 4.7917C9.47646 5.40682 7.94021 6.3084 6.64619 7.44499C5.35215 8.58159 4.32568 9.93091 3.62536 11.4159C2.92502 12.901 2.56458 14.4926 2.56458 16.1C2.56458 17.7073 2.92502 19.299 3.62536 20.784C4.32568 22.2691 5.35215 23.6184 6.64619 24.755C7.94021 25.8915 9.47646 26.7931 11.1672 27.4083C12.8579 28.0233 14.67 28.34 16.5001 28.34V22.22C15.585 22.22 14.679 22.0617 13.8336 21.7541C12.9882 21.4465 12.2201 20.9958 11.5731 20.4275C10.9261 19.8592 10.4129 19.1845 10.0627 18.4421C9.71255 17.6995 9.53232 16.9037 9.53232 16.1C9.53232 15.2963 9.71255 14.5005 10.0627 13.758C10.4129 13.0155 10.9261 12.3408 11.5731 11.7725C12.2201 11.2042 12.9882 10.7534 13.8336 10.4458C14.679 10.1383 15.585 9.97999 16.5001 9.97999V3.85999Z" fill="white"/>
</svg>
