<svg width="32" height="32" viewBox="0 0 32 32" fill="none" xmlns="http://www.w3.org/2000/svg">
<g clip-path="url(#clip0_65_205)">
<path d="M32 0H0V32H32V0Z" fill="white"/>
<path d="M28.702 19.39C28.0683 22.0317 26.7082 24.4194 24.791 26.2558C22.8739 28.0921 20.4844 29.2958 17.9201 29.7172C15.3559 30.1386 12.7303 29.7589 10.3701 28.6255C8.00998 27.492 6.01965 25.6549 4.64701 23.3428C3.27437 21.0308 2.58007 18.3461 2.65057 15.6229C2.72107 12.8997 3.55326 10.2585 5.04349 8.02812C6.53375 5.79773 8.61615 4.07676 11.0315 3.0795C13.4468 2.08225 16.0882 1.85279 18.6269 2.41969L17.7095 6.94521C16.0168 6.56724 14.2556 6.72022 12.6452 7.38515C11.0348 8.05007 9.64632 9.19758 8.65268 10.6847C7.65905 12.1718 7.10421 13.9328 7.05722 15.7486C7.01016 17.5643 7.47309 19.3543 8.38831 20.8959C9.30352 22.4375 10.6306 23.6624 12.2042 24.4181C13.7779 25.1738 15.5286 25.427 17.2383 25.1461C18.9481 24.8651 20.5413 24.0625 21.8195 22.8381C23.0978 21.6137 24.0047 20.0217 24.4272 18.2603L28.702 19.39Z" fill="black" fill-opacity="0.58"/>
<path d="M15.622 19.3058C17.3615 19.3058 18.7716 17.8257 18.7716 16C18.7716 14.1743 17.3615 12.6942 15.622 12.6942C13.8825 12.6942 12.4724 14.1743 12.4724 16C12.4724 17.8257 13.8825 19.3058 15.622 19.3058Z" fill="#777777"/>
</g>
<defs>
<clipPath id="clip0_65_205">
<rect width="32" height="32" fill="white"/>
</clipPath>
</defs>
</svg>
